<?xml version="1.0" standalone="no"?>
<!DOCTYPE svg PUBLIC "-//W3C//DTD SVG 1.1//EN" "http://www.w3.org/Graphics/SVG/1.1/DTD/svg11.dtd" >
<svg xmlns="http://www.w3.org/2000/svg">
<metadata></metadata>
<defs>
<font id="swagmastaregular" horiz-adv-x="1336" >
<font-face units-per-em="2048" ascent="1638" descent="-410" />
<missing-glyph horiz-adv-x="792" />
<glyph horiz-adv-x="0" />
<glyph unicode="&#xd;" horiz-adv-x="550" />
<glyph unicode=" "  horiz-adv-x="792" />
<glyph unicode="&#x09;" horiz-adv-x="792" />
<glyph unicode="&#xa0;" horiz-adv-x="792" />
<glyph unicode="!" horiz-adv-x="868" d="M154 240l175 110l131 21q0 -65 88 -65v-131q-101 -175 -285 -175h-22q-87 158 -87 240zM241 678v459q0 219 22 656q103 0 153 44h66l153 -44q-30 -468 -44 -481q0 -22 22 -22l-22 -153v-437q-65 -55 -65 -88l-44 22l-44 -131h-65q-35 0 -132 175z" />
<glyph unicode="&#x22;" horiz-adv-x="1362" d="M161 1771q0 153 284 153q219 -158 219 -284l22 -131q-58 -525 -394 -525q-65 16 -87 87l22 153l-22 44q65 122 65 241zM686 1203q65 191 65 284q-43 194 -43 262q0 131 197 131q262 -56 262 -371q0 -480 -350 -547q-75 0 -131 241z" />
<glyph unicode="#" horiz-adv-x="1754" d="M76 1159q0 125 153 197h197q0 109 22 109l-22 44v43q0 33 175 154h22q74 -26 131 -132h22v-153l-22 -44h197q0 243 153 329h109q110 -57 110 -175v-44l-22 -110h87q105 0 175 -109h22q-34 -262 -109 -262h-263v-44h131q50 0 88 22q219 -56 219 -153q0 -241 -503 -241 q-22 -234 -110 -372h-87q-153 70 -153 197v66l22 44h-44l-153 -22v-88q0 -49 22 -87q-22 -153 -175 -153q-175 114 -175 240h22q0 25 -219 197v109q72 153 262 153v88q-254 0 -284 197zM688 896q121 22 175 22v66h-43q-132 -14 -132 -66v-22z" />
<glyph unicode="$" horiz-adv-x="1799" d="M-34 1246q129 118 525 219v306q0 31 131 131h109q132 0 132 -196v-88l-22 -44h22q153 0 153 88q0 153 306 175q60 -93 87 -241l44 22q219 -40 219 -175v-22q-45 -87 -110 -87l-153 22q0 -22 -21 -22l21 -44q-21 -118 -21 -197q0 -39 240 -153q0 -34 44 -87v-153 q-62 -121 -328 -241v-44q0 -104 22 -218q-27 -219 -88 -219h-22q-284 48 -284 415q-59 0 -131 -43q44 -71 44 -110h-22l22 -43v-22q-44 -54 -44 -88q-328 44 -328 241h-197q-41 0 -175 65v132q0 87 306 131q0 -22 22 -22l22 44v175q-503 84 -503 262q0 16 -22 131zM863 700 h22q113 0 131 65v22l-22 44l-44 -22q-22 0 -22 22q-42 -22 -65 -22v-109zM863 1137q66 0 153 -22l22 44v175h-22l-153 -44v-153z" />
<glyph unicode="%" horiz-adv-x="2189" d="M6 984v197q0 283 372 525q87 21 153 65q55 0 262 -65h22q433 0 613 109q21 0 21 -22l44 22h88q21 0 87 -88q0 -145 -197 -415q-634 -1151 -634 -1618l-87 -88q-197 75 -197 197v109q0 364 590 1465h-22q-32 0 -196 -43v22q-175 0 -175 -219q-226 -416 -460 -416 q-136 0 -262 263h-22zM312 1093h44q153 213 153 328q-197 -127 -197 -328zM1340 43q0 276 350 657q0 57 175 87v-22l44 22h22q196 -140 196 -328v-66q-73 -699 -481 -699q-212 0 -306 349zM1690 43q57 0 131 263v44q-37 0 -131 -241v-66z" />
<glyph unicode="&#x26;" horiz-adv-x="2368" d="M115 1028v109q0 314 459 481q265 0 350 -153v-109q-54 -153 -175 -153h-44q-87 30 -87 109q-175 -69 -175 -197q0 -89 372 -109q22 -32 44 -241q-263 -236 -372 -372q22 -42 22 -65h65q285 0 831 393v44q-104 0 -175 241q0 218 875 218q284 0 284 -196 q-109 -175 -218 -175q-306 -44 -306 -197q-30 0 -569 -459q-443 -263 -809 -263q-350 98 -350 284v197q0 78 175 306q-197 69 -197 307z" />
<glyph unicode="'" horiz-adv-x="907" d="M56 1815v109q0 66 197 110h22q326 -131 371 -285q16 0 66 -109q0 -22 -22 -22q22 -42 22 -66q0 -568 -394 -568q0 -22 -21 -22q-66 126 -66 262q66 112 66 219v88q-32 110 -241 284z" />
<glyph unicode="(" horiz-adv-x="946" d="M159 874q0 403 197 766q118 350 372 350q103 0 131 -219q-328 -542 -328 -962q22 -42 22 -66h-22q44 -323 240 -853v-109q-155 -22 -175 -22q-233 0 -415 744v22q0 225 -22 349z" />
<glyph unicode=")" horiz-adv-x="943" d="M56 -66q284 569 284 744v109q0 368 -284 1050v22q93 109 197 109q230 -133 415 -853q33 -262 66 -262q-44 -454 -197 -744q-183 -328 -415 -328q-66 103 -66 153z" />
<glyph unicode="*" horiz-adv-x="1545" d="M130 1465q30 109 87 109v22q-65 101 -65 175q32 131 175 131h44q155 -43 175 -43q49 109 218 109q361 -123 394 -175q0 -49 22 -87l-44 -110q133 0 241 -153q-62 -197 -154 -197q44 -66 66 -153q-81 -197 -197 -197q-22 66 -131 66h-22l-65 -44q-164 0 -241 110 q0 -35 -153 -110q-219 28 -219 131l22 44q-22 43 -22 66q32 0 66 65q-55 88 -153 88q0 22 22 22z" />
<glyph unicode="+" horiz-adv-x="1233" d="M45 1203h22l-22 43q10 45 109 88l44 -22l44 22q42 0 153 -44v44q0 33 -22 306q85 66 131 66q197 0 197 -197q0 -183 22 -197l44 22h197q131 -14 131 -66l-22 -44q44 0 44 -21q-70 -219 -328 -219l-44 -44q44 -372 44 -415q0 -83 -132 -175h-43q-95 64 -153 306 q0 98 -44 284h-44q-328 0 -328 263z" />
<glyph unicode="," horiz-adv-x="869" d="M159 -175l87 372q-65 109 -65 174v66q27 0 153 88q204 0 284 -307q0 -356 -262 -503h-44q-153 0 -153 110z" />
<glyph unicode="-" d="M223 1093v22q16 175 153 175v-22q22 0 22 22l109 -22h132q49 0 87 22q350 -30 350 -131q44 -7 44 -44q-52 -197 -350 -197q-118 0 -219 -44q-22 0 -22 22l-109 -22q-197 16 -197 219z" />
<glyph unicode="." horiz-adv-x="842" d="M191 306v65q0 33 153 154q197 0 197 -154v-65q0 -158 -153 -197q-197 159 -197 197z" />
<glyph unicode="/" horiz-adv-x="1330" d="M4 175q251 530 984 1465q44 136 109 153h132q175 0 175 -153h-22l22 -44q-257 -388 -678 -940q-215 -289 -394 -700q-72 -44 -131 -44h-66q-44 0 -44 44q22 0 22 22h-22q0 -22 -21 -22q-39 80 -66 219z" />
<glyph unicode="0" horiz-adv-x="1339" d="M180 962h22l-22 44q0 716 350 940l153 22q115 -22 131 -22l44 22q281 0 350 -787q0 -665 -503 -984h-66q-357 0 -415 503zM486 984q0 -334 153 -481q201 266 263 546v44q-44 469 -175 678h-22q-219 -182 -219 -590v-197z" />
<glyph unicode="1" horiz-adv-x="1219" d="M54 262q0 125 416 219l21 131v153l-21 131q21 53 43 219h-22l-87 -44q-321 22 -350 219v66q93 109 197 109q38 -22 87 -22q152 184 219 416q101 43 197 43q117 -43 131 -109q-22 -801 -66 -1050q0 -22 22 -22l-22 -109v-87q0 -66 328 -110q110 0 110 -175 q-49 -153 -175 -153q-142 0 -438 22q-53 0 -371 -44q-219 45 -219 197z" />
<glyph unicode="2" horiz-adv-x="1263" d="M90 218v66l284 459l44 44l-22 44q350 528 350 765h-22q-156 -77 -328 -393h-131q-131 76 -131 109v22q0 303 481 568q0 31 219 44q284 0 284 -262q0 -374 -328 -853q-131 -256 -131 -285h43l110 22v-22q87 44 284 66l175 -87l-22 -44l22 -44q-26 0 -131 -131 q-460 -109 -831 -263q-219 47 -219 175z" />
<glyph unicode="3" horiz-adv-x="1397" d="M111 1596v22q0 136 809 284v-22q189 66 219 66q109 -66 175 -66v-87q0 -114 -438 -678v-22h219q175 -101 175 -240v-66q0 -622 -656 -831l-109 -22q-132 0 -197 153v44q28 72 437 219q110 194 110 306v65q-191 0 -482 -262q-153 0 -218 153v44q0 81 568 853v22h-22 l-459 -175q-131 43 -131 240z" />
<glyph unicode="4" horiz-adv-x="1569" d="M7 656v153q66 0 437 590q132 203 241 438q74 87 219 87q153 0 153 -175l-66 -109v-22l131 66q219 0 219 -503h-22q0 -22 22 -22l-22 -110v-43q157 0 197 -88v-22q0 -194 -241 -262v-44q0 -205 -21 -415v-263q-98 -131 -132 -131h-22q-21 0 -21 22l-44 -22 q-153 137 -153 525v22q0 22 22 22q0 21 -22 21l22 154v65l-22 44q-487 -109 -613 -109h-43q-132 0 -197 131h-22zM532 918q255 66 394 66v131q0 22 21 22q-43 306 -87 306q-239 -414 -328 -503v-22z" />
<glyph unicode="5" horiz-adv-x="1322" d="M67 721v44l284 656v22q0 49 -22 88q147 218 241 218q42 -22 66 -22q502 175 699 175h22l153 -43q0 -263 -765 -460q0 -47 -131 -328q363 0 481 -306q22 -36 22 -109v-110q0 -253 -525 -546q-142 -44 -197 -44h-66q-196 0 -196 153t218 153q372 88 372 372 q-137 66 -197 66q-254 -132 -284 -132q-120 0 -175 153z" />
<glyph unicode="6" horiz-adv-x="1285" d="M94 700v43h22l44 -22q0 50 21 88q-21 42 -21 65h21q0 22 -21 22q0 511 393 831q265 175 328 175q175 0 175 -131v-22q0 -157 -284 -262q-219 -156 -219 -481q-22 0 -22 -22h44q84 65 394 87q240 -243 240 -481q0 -279 -306 -568q-168 -88 -219 -88q-303 0 -459 416 q-44 98 -44 284v44zM553 568q46 -168 153 -240v-22h44q88 205 88 284q-28 110 -66 110h-22q-120 0 -197 -132z" />
<glyph unicode="7" horiz-adv-x="1524" d="M115 940v66q0 44 44 415q0 21 -44 263q146 131 328 131l262 -66l44 22h44q132 0 547 66q131 -14 131 -66v-87q-224 -607 -306 -1028v-285q0 -93 -88 -262h-22l-43 22v-44h-110q-131 139 -131 306v219q0 22 22 22q0 22 -22 22q0 73 175 765h-22q-372 -44 -372 -65 q-59 -569 -240 -569q0 -44 -44 -44h-44q-65 0 -109 197z" />
<glyph unicode="8" horiz-adv-x="1497" d="M122 590q0 301 328 547q-66 126 -66 262q102 525 416 525h284q285 0 285 -197l43 -21l-22 -110v-22q0 -49 22 -87q0 -93 -240 -438q65 -84 109 -393q-131 -547 -437 -547q0 -44 -153 -44h-66q-503 0 -503 525zM450 568q26 -131 219 -131q306 89 306 328q-30 90 -109 131 l-132 -22q-42 22 -65 22q-171 -158 -219 -328zM712 1312h44l110 22v-22q81 0 218 175q-87 0 -87 44q0 79 -88 109q-197 -45 -197 -219v-109z" />
<glyph unicode="9" horiz-adv-x="1458" d="M-131 0v43q94 105 831 460q262 251 262 415q-240 -175 -393 -175h-131q-285 0 -285 460q33 271 350 524q287 110 416 110q372 0 372 -306q43 0 43 -394q0 -1003 -1159 -1225q-54 0 -175 -22q-63 110 -131 110zM481 1115q22 0 22 -22q438 193 438 416v22h-22 q-438 -59 -438 -416z" />
<glyph unicode=":" horiz-adv-x="674" d="M142 437v66q0 153 153 153h66q65 0 109 -197q0 -123 -109 -153l-44 22q-42 -22 -66 -22zM142 1006q44 131 87 131h132q87 -36 87 -153v-66q0 -153 -131 -153q-175 52 -175 241z" />
<glyph unicode=";" horiz-adv-x="743" d="M113 175l87 350v65q0 88 -43 284q43 154 175 154v21q-148 0 -175 175v66q70 131 153 131q126 0 175 -131v-22q-11 -219 -110 -219v-21q175 0 175 -547q-52 -416 -306 -416q-131 85 -131 110z" />
<glyph unicode="&#x3c;" horiz-adv-x="1330" d="M-43 700q16 117 590 437q422 372 503 372h66q34 0 88 -88v-175q-299 -298 -678 -481q0 -21 328 -219q0 22 22 22q0 -50 240 -153q66 -38 109 -131h22q0 -153 -197 -153h-43q-137 0 -569 219q-481 181 -481 350z" />
<glyph unicode="=" horiz-adv-x="1303" d="M107 1115v44q0 123 131 153l219 -22h175q49 0 87 22q416 -37 416 -175l22 -88q-140 -131 -153 -131h-394l-109 -22v22q-40 -22 -219 -44q-175 37 -175 241zM173 743q43 0 43 66h153l44 22v-22q166 44 416 44q262 0 262 -197q-109 -197 -306 -197l-394 -44h-43 q-175 0 -175 328z" />
<glyph unicode="&#x3e;" horiz-adv-x="1181" d="M28 1443l153 109h131q359 -312 766 -437v-22q0 -22 -22 -22q44 -71 44 -131q0 -135 -788 -765q0 -22 -22 -22q-87 0 -196 131v22q0 22 21 22l-21 43q425 503 503 503v22q0 38 -263 132q-284 205 -284 328q-22 38 -22 87z" />
<glyph unicode="?" horiz-adv-x="1016" d="M-9 1224q0 261 569 569q175 44 218 44h88q109 -56 109 -175v-66q0 -248 -284 -765q-88 -146 -241 -700l-153 -22q-44 131 -87 131v44q0 389 284 897q131 255 131 284q-168 -68 -437 -372l-131 -22q-44 67 -66 153zM385 -153l22 109h43l131 22q88 0 132 -197 q-65 -153 -197 -153q-131 127 -131 219z" />
<glyph unicode="@" horiz-adv-x="2111" d="M61 700v87q115 323 241 437q421 503 896 503h131q430 0 635 -831q-37 -678 -241 -678q0 -65 -219 -109h-131l-175 109q0 -109 -240 -175h-132q-218 61 -218 438v44q0 328 328 634q112 87 218 87h88q71 -8 175 -328l-22 -197q0 -37 88 -218q28 0 87 131l-22 44l22 109 q-22 42 -22 66h22q-116 568 -394 568h-65q-202 0 -460 -240q-240 -249 -240 -503q0 -575 656 -984v-22q-44 -54 -44 -88h-65q-587 0 -831 722q-66 233 -66 394zM958 437h22l21 219v44h-21q-22 -121 -22 -175v-88z" />
<glyph unicode="A" horiz-adv-x="1289" d="M61 43q0 122 66 678q-44 0 -44 44v22q197 666 197 787q-22 43 -22 66q98 109 131 109l131 -43l110 21q154 0 350 -524q87 -359 153 -985l-88 -196h-87q-132 0 -175 678q-416 0 -416 -219q-22 -115 -22 -219v-153q-76 -153 -175 -153q-99 42 -109 87zM455 1049 q65 0 65 -21q22 21 175 21q-117 264 -175 285q-65 -208 -65 -263v-22z" />
<glyph unicode="B" horiz-adv-x="1216" d="M86 1684q0 117 372 196h22q503 -101 503 -349v-88q0 -155 -197 -372q242 -230 284 -481v-65q0 -229 -328 -482q-70 -34 -197 -65q-87 44 -153 44q-22 -43 -22 -66h-87q-33 0 -110 131q0 405 22 656q0 574 -109 941zM414 1509q16 -285 66 -285q218 106 218 153v44 q-97 110 -262 110q0 -22 -22 -22zM436 328h22q188 0 328 197v21q0 182 -328 263v-219z" />
<glyph unicode="C" horiz-adv-x="1035" d="M67 896q0 453 306 897q167 153 263 153q328 -186 328 -481q-56 -175 -132 -175q-101 0 -153 262q-71 44 -131 44q-116 -247 -197 -590q0 -22 22 -22l-22 -88q43 -525 197 -525h22l350 132v-22q0 -23 22 -66q0 -191 -306 -372q-39 -21 -88 -21h-44q-203 0 -393 393 q-44 327 -44 481z" />
<glyph unicode="D" horiz-adv-x="1299" d="M135 262v350q0 22 22 22l-22 44v218q0 202 22 569q-22 36 -22 109h22q0 22 -22 22q0 137 153 197q610 0 809 -394q66 -76 66 -262q0 -583 -678 -1159h-66v44l-109 -22q-175 88 -175 262zM419 1137q22 -150 22 -241v-525h22l306 416q66 208 66 262v175q-92 197 -372 197 q0 22 -22 22v-131q0 -153 -22 -175z" />
<glyph unicode="E" horiz-adv-x="1212" d="M98 896q16 328 44 328q-22 43 -22 66l22 44q-22 38 -22 87v22q0 22 22 22l-22 44v43q0 22 22 22l-22 44q71 197 394 197q299 87 371 87q22 0 22 -22l44 22h22q175 0 175 -131v-65q-68 -175 -438 -175q0 -27 -240 -66v-306q54 0 350 87q284 0 284 -131v-22 q0 -145 -634 -306q0 -394 109 -394q289 197 372 197h66q43 -71 43 -109q-24 0 -131 -263q-291 -196 -394 -196q-352 0 -393 634q0 177 -44 240z" />
<glyph unicode="F" horiz-adv-x="1178" d="M136 131q0 154 22 634q-22 342 -22 503l22 44q-22 38 -22 87v241q69 134 153 153q700 -73 700 -175q44 -111 44 -153q-62 -88 -263 -88h-197l-109 22v-240q462 109 612 109q88 -22 88 -109h-22l22 -44v-66q-27 0 -131 -109q-350 -153 -591 -197v-22l22 -87 q-16 -131 -44 -131l22 -44v-88q0 -49 -22 -87q22 -42 22 -66l-22 -43q0 -22 22 -22l-22 -110v-65q-159 -88 -175 -88q-109 140 -109 241z" />
<glyph unicode="G" horiz-adv-x="1939" d="M62 240v197q0 792 437 1181q245 109 285 109h43q132 -75 132 -218q-43 -100 -88 -110q-59 0 -131 44q-101 0 -219 -306q-82 -122 -131 -459h22q0 160 1443 393h44q22 -65 44 -65q-39 -306 -350 -306q-133 0 -569 -175l22 -44v-22q0 -22 -22 -22l22 -44 q-242 -479 -590 -568h-153q-128 64 -241 415zM368 415q38 -240 88 -240h22q247 167 306 284q-93 -44 -263 -66q-109 69 -109 132h-22q0 -74 -22 -110z" />
<glyph unicode="H" horiz-adv-x="1533" d="M113 393q22 307 44 307q0 21 -22 21q22 296 22 438v153q0 91 -22 240l22 44l-22 44q0 109 262 153q44 -119 88 -394q-17 -57 -44 -262q236 44 503 44h44q0 65 22 65l-22 44v197q0 78 -22 197q45 131 175 131h131q0 -27 66 -306q-22 -551 -22 -875v-66q0 -393 -131 -393 h-22q-175 174 -175 350v306h-22q-429 -66 -525 -66v-22q0 -590 -175 -590h-22q-131 158 -131 240z" />
<glyph unicode="I" horiz-adv-x="729" d="M93 415l44 263q0 22 -22 22q65 451 65 852l-21 44q0 16 87 175h131q153 0 153 -131q22 -36 22 -109h-22l22 -44v-131q-87 -956 -131 -1181l-66 -44h-87q0 50 -88 109q-39 57 -87 175z" />
<glyph unicode="J" horiz-adv-x="899" d="M-85 175v87h44l87 -65v43q117 -87 197 -87q66 0 131 503l-22 153h22l-22 44v765q0 79 88 175q262 0 262 -219v-415q0 -22 -22 -22l22 -44v-197q0 -78 22 -196l-22 -44q0 -23 22 -66q-105 -809 -262 -809h-44q-234 0 -503 394z" />
<glyph unicode="K" horiz-adv-x="1558" d="M135 525l22 43q0 22 -22 22l22 110q0 146 -22 677h22l-22 44v44q0 22 22 22l-22 44v218q153 0 153 66q131 0 131 -591v-109h44q0 40 416 394q127 218 306 218q65 0 131 -131q0 -192 -241 -328q0 -28 -393 -372q45 -1 284 -306q273 -251 525 -328q87 0 87 -175l-109 -109 q-455 0 -1006 656v22h-22v-175q0 -49 22 -88l-22 -43q22 -39 22 -88q0 -22 -22 -22l22 -43v-44q0 -30 -109 -110h-22q-175 54 -175 241q0 241 -22 241z" />
<glyph unicode="L" horiz-adv-x="1154" d="M101 1574l175 66q137 0 153 -219h-22l22 -44v-284q0 -78 22 -197l-22 -43q0 -22 22 -22l-22 -110v-87q0 -306 131 -306q11 0 88 22l43 -22l44 22l110 -22q21 0 21 22l110 -22h87q0 -50 110 -66q21 -38 21 -87q-134 -197 -437 -197q0 -22 -131 -22h-131q-161 0 -285 175 h-22q0 22 22 22q-87 181 -87 481q0 22 22 22l-22 44q0 21 22 21l-22 44v44q0 22 22 22l-22 43v44q0 22 22 22l-22 44v328z" />
<glyph unicode="M" horiz-adv-x="1707" d="M78 1487q0 61 175 109q232 0 437 -568q167 -241 197 -241q241 634 241 853q87 0 153 44q197 0 197 -569q43 -807 43 -1028q-34 0 -87 -44h-22q-137 0 -219 460h22l-22 43v22q0 22 22 22l-22 44l22 44q-22 42 -22 65q22 0 22 22h-44q0 -101 -174 -372l-44 -22h-110 q-131 58 -415 503v-109q0 -49 22 -87q-22 -39 -22 -88v-65l22 -110h-22l22 -44v-131q-13 -437 -110 -437h-43l-153 153q21 223 21 350q0 380 -87 1181z" />
<glyph unicode="N" horiz-adv-x="1744" d="M77 1552q14 59 109 110h44q101 0 284 -263q190 -265 613 -656l65 -109h22q44 213 44 634v503q0 141 153 219q92 0 131 -153q0 -143 22 -372q-22 -224 -22 -350l22 -262h-22q0 -22 22 -22q-50 -700 -131 -700h-109q-277 176 -853 831l-44 22l22 -44v-547l22 -153h-22 l22 -43v-66q0 -47 -66 -284l-241 65v525q0 79 -21 197q21 36 21 109q-43 455 -65 481q22 43 22 66q0 41 -44 262z" />
<glyph unicode="O" horiz-adv-x="1363" d="M72 568v372q0 389 306 744q197 196 306 196h66q0 -25 284 -284q153 -294 153 -700v-22q0 -463 -415 -874q-84 -66 -197 -66h-22q-306 0 -481 634zM378 656q57 -350 197 -350q328 262 328 612q-72 613 -219 613q-160 0 -306 -613v-262z" />
<glyph unicode="P" horiz-adv-x="1281" d="M108 1356q22 42 22 65v328l109 66h22q155 -44 175 -44h131q700 0 700 -459q0 -365 -743 -787h-22v-88q0 -255 43 -350q-54 -219 -109 -219q-155 88 -197 88q0 22 22 22q-66 306 -87 656l21 44q-21 303 -87 678zM436 1159q44 -86 44 -241v-22h22q363 200 437 416 q-26 87 -350 109h-153v-131q0 -49 22 -87z" />
<glyph unicode="Q" horiz-adv-x="1577" d="M8 590q265 1159 984 1159q92 0 219 -350v-306q-44 -208 -110 -393q438 -358 438 -394q0 -175 -197 -175q-181 55 -415 240q-218 -415 -525 -415q-263 0 -372 525q0 73 -22 109zM336 568q0 -137 109 -240h22q111 89 197 218q-235 161 -240 285h-22q-50 -263 -66 -263z M467 984h22q7 44 44 44h65q48 0 263 -110q44 115 66 285q-22 42 -22 65h22l-66 175q-316 -231 -394 -459z" />
<glyph unicode="R" horiz-adv-x="1433" d="M39 1312q0 301 328 372q0 34 219 65v-22l43 22h88q459 0 459 -328v-109q0 -207 -372 -481h-43q120 -197 590 -569q0 -50 66 -131q-49 0 -88 -66q0 -87 -131 -87q-90 15 -415 306l-263 197v-22q44 -197 44 -284v-22q0 -51 -88 -197q-204 0 -218 262q-61 125 -66 482h22 q-44 114 -44 459v44q-66 0 -109 109h-22zM476 1159q22 -87 22 -153q270 108 372 350l-197 43q-126 -13 -197 -65l22 -44v-22q0 -73 -22 -109z" />
<glyph unicode="S" horiz-adv-x="1000" d="M25 393l44 22h65q78 0 263 -109h22q0 206 -263 897v218q0 306 503 306q249 0 350 -87q0 -263 -219 -263q-21 43 -21 66h-22q-263 0 -263 -66q0 -43 -22 -43q285 -805 285 -1028q0 -394 -306 -394v22l-44 -22q-372 172 -372 481z" />
<glyph unicode="T" horiz-adv-x="1023" d="M-22 1640v87q0 110 765 175h263q175 -96 175 -131v-44l-22 -43q22 0 22 -22q-32 0 -88 -88h-175l-109 -22v22q-38 -22 -87 -22q-22 -752 -66 -1049q22 -121 22 -175q-32 -175 -175 -175q-136 164 -175 393l66 525l-22 44q22 186 22 306v66q-125 0 -263 -44 q-80 8 -153 197z" />
<glyph unicode="U" horiz-adv-x="1562" d="M104 678h22l-22 43v569q0 111 66 350q-22 0 -22 22q87 0 87 153q153 -28 153 -153q0 -40 -43 -241q0 -721 196 -1181h22q163 223 263 481l-22 44v44q87 0 87 350v218l-22 132q74 240 263 240q65 0 153 -1028l175 -546q0 -34 -109 -197h-22q-222 121 -306 481h-22 q-158 -591 -503 -591q-250 0 -394 810z" />
<glyph unicode="V" horiz-adv-x="1330" d="M27 1684q10 83 241 153q109 0 284 -634q35 0 153 -350h22q109 324 284 962q131 83 131 131h44q88 -45 88 -109q0 -187 -263 -1159l22 -44q-66 -100 -87 -394l-110 -87h-44q-211 0 -481 765q-218 465 -284 766z" />
<glyph unicode="W" horiz-adv-x="2006" d="M57 1684v43q0 110 109 153h110q65 -164 218 -831q38 0 88 -262h44q43 99 131 700q65 0 65 65h154q213 -199 437 -787q68 0 219 984q43 0 43 110l44 -22q42 100 88 109h65l44 -197v-22q-153 -1034 -284 -1574l-153 -66q-137 0 -503 897h-22q0 -175 -197 -831 q-66 -44 -66 -88q-240 0 -240 263q-44 43 -285 896q-109 282 -109 460z" />
<glyph unicode="X" horiz-adv-x="1464" d="M39 437q153 314 394 547v22q-307 437 -394 634q32 175 175 175h87q115 -86 328 -503q0 -32 66 -66q0 28 416 613q0 14 131 87q117 0 153 -87v-132q0 -104 -219 -350q-268 -393 -306 -393q503 -734 503 -831v-66q-44 -87 -131 -131h-22q-179 115 -569 744h-22 q-347 -394 -415 -394q-36 -22 -109 -22q0 21 -66 153z" />
<glyph unicode="Y" horiz-adv-x="1411" d="M99 1509v153q0 136 175 153h66q55 0 109 -197l-22 -219q0 -743 88 -743q300 366 306 525v153q0 393 240 393h22q109 -55 109 -196q-21 -210 -43 -241q0 -22 22 -22l-22 -87q109 -899 131 -1378q0 -328 -241 -438h-131q-151 0 -415 307v43h306l153 22v153l-22 110h22 q-22 27 -66 590h-22q-254 -393 -415 -393h-22q-328 0 -328 1312z" />
<glyph unicode="Z" horiz-adv-x="1670" d="M37 853q0 181 503 262q212 300 306 503q-100 0 -634 -284h-66q-65 145 -65 197q0 126 284 240q199 125 591 219q0 22 109 44q211 0 240 -197q-196 -438 -306 -591h22q73 0 109 22q307 -50 307 -109q0 -155 -460 -263q-261 -77 -350 -306q0 -34 -43 -87v-22 q270 65 896 175v-22q43 22 66 22q71 -44 109 -44v-87q-81 -154 -590 -307q-544 -109 -744 -240h-87q-131 72 -131 328q103 62 218 350l-109 -22h-22q-87 25 -153 219z" />
<glyph unicode="[" horiz-adv-x="1168" d="M60 240v22q7 44 44 44l43 1378q-21 42 -21 65q43 131 153 131q0 88 131 132v22l44 -22h240q326 0 372 -197q-13 -79 -175 -175l-219 22h-175l-43 -591q22 -42 22 -65h-22l22 -44q-22 -42 -22 -66q0 -22 22 -22l-22 -109v-415h262q372 0 372 -197q-145 -175 -591 -175 h-218q-219 0 -219 262z" />
<glyph unicode="\" horiz-adv-x="1474" d="M60 1618v44q0 131 197 131h65q88 -15 372 -525q700 -749 700 -918v-44q-66 -131 -197 -131q-404 299 -678 721q-459 545 -459 722z" />
<glyph unicode="]" horiz-adv-x="1343" d="M60 43v110q148 87 241 87q87 0 524 -43v831q0 49 -21 87q21 47 43 328l-22 131h-65q-481 0 -481 44l-44 -22q-32 0 -153 153v110q89 131 284 131q306 -22 328 -44q22 0 22 22l109 -22h241q123 0 197 -219q-88 0 -88 -699v-853l22 -110h-22l22 -43v-66q-51 -131 -175 -131 q-36 -22 -109 -22q-51 89 -700 153q-153 68 -153 87z" />
<glyph unicode="^" horiz-adv-x="9494" d="M60 -667q16 225 41 225q382 509 841 780q210 292 390 902h-62q0 -67 -677 -512q-148 -62 -184 -62q-62 95 -62 123q150 405 862 1190q241 164 307 164h62q70 0 102 -267q-20 -36 -20 -82l185 164h82v-102q0 -98 -308 -349q-123 -456 -308 -882h41q0 41 205 144l308 225 q228 149 369 349l123 20q41 -6 41 -41v-102q-143 -282 -471 -800q-103 -175 -103 -226q905 801 1108 1108q0 32 82 82h102l21 -103v-20q0 -82 -349 -533q-205 -340 -205 -513q315 212 944 759q75 102 492 348q87 82 225 82q144 -34 144 -246q-61 -307 -226 -595h41 q329 267 329 308q191 115 389 492q21 0 62 83q-267 0 -267 61v103q95 143 287 143q36 -20 82 -20h42q88 145 164 164q0 20 20 20h41q50 -41 82 -41v-61l-20 -103q841 -45 841 -164v-20l-21 -41q32 0 82 -83q0 -135 -287 -389q-482 -523 -513 -718h41q444 198 882 513 q339 192 595 512q53 144 205 144v-20l41 20h41q0 -33 41 -62q0 -175 -410 -574q0 -40 -328 -410l-103 -144h21q186 68 554 431q28 0 266 246q283 249 472 472l103 21h41q32 0 102 -103h21v-41q0 -148 -308 -595q0 -49 -82 -185v-123q0 -312 410 -389l267 41v-21 q104 41 144 41q82 -31 82 -61q-212 -308 -493 -308h-102q-513 0 -616 677q0 122 185 533q-750 -806 -1005 -902q-120 -103 -246 -103q-88 0 -123 205l20 41l-20 41l102 226h-20q-662 -451 -903 -451q-143 48 -143 246v143q-522 -389 -718 -389h-41q-62 15 -144 164v123 q0 51 41 184q-420 -379 -841 -451q-211 0 -287 472q-605 -513 -698 -513q-33 -20 -102 -20q-68 0 -144 225l62 267q-571 -554 -698 -554q-123 0 -123 185v41q0 148 349 718q-779 -530 -820 -636q-331 -589 -616 -903q-136 -102 -307 -102q-103 57 -103 164zM265 -565h21 q314 208 430 513q-451 -392 -451 -513zM655 994h20q181 73 718 534q62 63 62 389h-21q-271 -168 -636 -677q-74 -156 -143 -246zM3445 625q59 -10 164 -287l102 -21q234 275 328 452l-20 41q52 0 102 225v62h-20q-298 -105 -656 -472zM4614 256h20l493 266l-21 41 q247 69 944 841q-40 21 -62 21q-160 0 -574 21v20l-41 -20q-21 0 -21 20q-138 0 -287 -349q-268 -289 -451 -759v-102zM6747 1999l164 123q103 -48 103 -123q-30 -143 -185 -143h-20q-62 75 -62 143zM8224 -708q0 94 410 615q0 36 41 103q-164 197 -164 553l123 103h41 q169 0 205 -308q7 -41 41 -41q248 370 349 370q112 -41 144 -124v-123l-349 -471q225 -298 225 -431q-105 -41 -164 -41q-129 27 -266 164h-21q0 -25 -225 -267q-21 -68 -206 -205h-143q0 41 -41 41v62z" />
<glyph unicode="_" horiz-adv-x="1518" d="M60 109q0 144 87 197q545 -88 744 -88h416q131 -76 131 -196v-22l-131 -153q-1203 43 -1203 196z" />
<glyph unicode="`" horiz-adv-x="601" d="M60 1363q0 31 20.5 51t53.5 20q20 0 40.5 -12t55.5 -47l291 -296h-69l-330 202q-31 20 -46.5 40t-15.5 42z" />
<glyph unicode="a" horiz-adv-x="1377" d="M107 284v22q0 759 437 1028q131 87 263 87q240 -106 240 -415q66 -308 219 -503v-88q0 -117 -87 -153h-22q-105 0 -306 263q-245 -460 -525 -460q-95 0 -219 219zM413 481h44q219 319 219 393v197q-160 -123 -175 -262q22 0 22 -22q-66 0 -110 -306z" />
<glyph unicode="b" horiz-adv-x="1212" d="M146 284q0 49 22 87q-22 224 -22 350v285q0 22 22 22l-22 43v22q0 22 22 22l-22 44v22q0 22 22 22l-22 43l22 110l-22 109h22l-22 44v87q42 197 219 197h87q0 -109 44 -109q0 -22 -22 -22l22 -153v-263q156 119 350 131q182 0 219 -218v-131q0 -677 -525 -1006 q-39 -22 -88 -22q-109 0 -153 153q-70 0 -153 131zM496 350q99 0 219 437h-22l22 44v175h-44q-175 -269 -175 -394v-262z" />
<glyph unicode="c" horiz-adv-x="1214" d="M66 393q44 59 66 328q0 137 306 547q189 141 415 175q0 22 44 22q197 0 197 -306v-110q0 -49 -22 -87l44 -153q-66 -175 -197 -241h-88q-80 0 -131 328q-65 48 -65 110h-22q-56 0 -110 -175q22 0 22 -22q-87 0 -87 -350q0 -220 153 -306q49 0 87 22q22 0 22 -22l110 22 h65v-66q0 -174 -350 -306h-22q-347 0 -437 590z" />
<glyph unicode="d" horiz-adv-x="1319" d="M53 328v65q0 589 503 853q38 22 87 22l88 -44q22 219 22 328v175q0 128 87 219q263 -20 263 -219v-415q0 -49 22 -88l-22 -43q0 -44 22 -44q-22 -115 -22 -131q0 -290 87 -591q-37 -167 -109 -197h-66q-175 117 -175 263h-43q-151 -325 -394 -416h-44q-204 0 -306 263z M359 459q57 0 241 328v66q0 43 -44 43q-197 -226 -197 -437z" />
<glyph unicode="e" horiz-adv-x="1075" d="M105 612q0 66 44 175h-22q149 416 394 416q6 43 43 43q22 0 22 -22l44 22h87q168 0 197 -240v-44q0 -228 -481 -525q17 -153 109 -153q197 66 263 66h109q44 -7 44 -44q-149 -350 -459 -350q-314 0 -372 503q-22 28 -22 153zM433 809h22q153 87 153 197 q-175 -100 -175 -197z" />
<glyph unicode="f" horiz-adv-x="1118" d="M8 481v22q109 153 219 153v109q0 648 306 941q116 101 306 131q175 -59 175 -285v-65q-22 -175 -175 -175q-109 106 -109 175h-22q-88 -174 -153 -569l22 -44v-109q218 44 393 44h44q44 0 66 -175q-326 -241 -525 -241v-568q0 -49 22 -88q-56 -240 -132 -240h-21 q-197 0 -197 175v590q-219 0 -219 219z" />
<glyph unicode="g" horiz-adv-x="1200" d="M79 787q153 486 416 634q43 0 43 22q171 0 481 -175q-21 -328 -21 -481v-656q0 -49 -22 -88l22 -43q-143 -700 -329 -700q0 -44 -109 -44h-44q-153 84 -153 109v110q285 93 285 634q0 79 21 197q-217 -219 -262 -219q-219 0 -306 372v306q0 22 -22 22zM385 525 q102 66 197 240q-22 0 -22 22q57 0 88 175v153q-24 0 -66 22q-153 -236 -153 -328h22q42 -22 65 -22v-22h-65q0 22 -22 22q-44 -85 -44 -241v-21z" />
<glyph unicode="h" horiz-adv-x="1278" d="M123 328q44 0 44 43q0 202 22 875q-22 418 -22 569q0 109 218 109q110 -30 110 -153v-394h65l132 66q254 0 350 -240q65 -374 65 -525h-22q0 -22 22 -22q0 -503 -197 -503q-131 45 -131 175v153q0 170 -44 590q-136 0 -284 -940l-131 -88h-66q-131 188 -131 285z" />
<glyph unicode="i" horiz-adv-x="739" d="M133 1006q37 218 197 218h87q30 -1 88 -109v-109q0 -125 22 -153q0 -700 -175 -700h-22q-126 76 -175 153q22 218 22 328v22q0 255 -44 350zM199 1706q57 196 218 196h22q30 0 110 -109v-44q-44 -197 -110 -197q-240 51 -240 154z" />
<glyph unicode="j" horiz-adv-x="728" d="M-82 -416q0 122 197 175q87 181 87 481v219q0 119 -65 459q70 175 262 175q83 -55 153 -459h-22l22 -44v-393q-87 -788 -437 -788q-97 0 -197 175zM159 1531l153 109l109 22l87 -131v-44q-34 -197 -174 -197q-175 109 -175 241z" />
<glyph unicode="k" horiz-adv-x="1394" d="M135 1574q82 175 153 175q28 22 153 22q66 -246 66 -525h22q162 350 525 350q87 -44 131 -131v-219q0 -194 -328 -525q481 -492 481 -546h-22l22 -44q0 -175 -153 -175q-175 0 -634 459h-22v-109q0 -22 -22 -22l22 -44q0 -55 -88 -306h-153q-131 81 -131 263h22l-22 43 q22 538 22 853v66q0 49 -22 87l22 44z" />
<glyph unicode="l" horiz-adv-x="794" d="M151 634h22q-22 42 -22 66q0 21 22 21l-22 110v918q56 110 175 110h22q87 -168 87 -263v-197l22 -109h-22l22 -44q0 -49 -22 -87q22 -150 22 -241v-87h44l-22 -44v-131q0 -300 66 -372l43 22q153 -17 153 -131q0 -138 -240 -241q-350 106 -350 700z" />
<glyph unicode="m" horiz-adv-x="1900" d="M147 1071q0 138 219 153q87 0 87 -218q88 153 241 197q131 0 262 -503h22q166 524 481 524h22q241 -276 241 -962v-44q-86 -129 -153 -153q-154 0 -154 219q-35 0 -87 437q-50 -10 -306 -678l-219 -87q-109 192 -109 262h22q-73 328 -110 328q-65 -568 -218 -568 q-22 0 -22 -44h-22q-153 0 -153 219h22q-17 46 -44 240q0 22 22 22q-22 162 -44 656z" />
<glyph unicode="n" horiz-adv-x="1338" d="M72 1049q0 81 241 154v-44l43 22q44 -271 44 -307h22q164 394 306 394q0 22 88 66h21l132 -197q175 -321 175 -744h-22q16 -57 43 -262q0 -103 -153 -241q0 52 -109 110q-66 86 -153 787l-44 22q-197 -515 -197 -591q-47 -240 -131 -240q-197 52 -197 197 q-51 705 -109 874z" />
<glyph unicode="o" horiz-adv-x="1070" d="M98 459h22q-22 42 -22 66q0 402 350 831q44 0 153 65q126 0 262 -240q44 -152 44 -263v-65q0 -358 -240 -722l-153 -109q-342 0 -416 437zM448 481q83 0 131 459h-44q-87 -360 -87 -459z" />
<glyph unicode="p" horiz-adv-x="1203" d="M101 853l22 153v109q51 0 197 88q109 -22 109 -88l153 22h66q344 0 437 -284v-22q0 -409 -568 -831q-44 -101 -44 -219q0 -73 22 -372q-35 -131 -153 -131h-22q-132 0 -175 459q22 39 22 88l-22 131q43 284 65 284q-16 38 -43 263l21 109q-38 241 -87 241zM495 415 q262 239 262 350q-175 22 -175 44q-38 -22 -87 -22v-372z" />
<glyph unicode="q" horiz-adv-x="1626" d="M74 525v218q136 516 394 700q225 109 284 109q166 0 197 -196q28 0 44 -153q0 -22 -22 -22l22 -153v-154q0 -49 -22 -87l22 -44q-39 -93 -66 -262l22 -44q-22 -308 -22 -525q342 328 678 328q0 -65 109 -65q0 -267 -306 -350q-452 -352 -525 -656h-65q-219 22 -219 131 q0 102 -22 678h22l-22 44v43l22 44l-153 -22h-88q-284 203 -284 438zM380 568l22 -87h22q240 304 240 634q22 0 22 22q-22 36 -22 109q-37 0 -196 -240q22 0 22 -22q-88 0 -110 -416z" />
<glyph unicode="r" horiz-adv-x="1011" d="M118 1224v44q0 175 131 175q43 22 66 22q131 -44 131 -109h22q161 109 350 109q138 0 262 -131q-30 -241 -153 -241q-328 0 -328 -328q-50 -306 -65 -306l21 -44v-131q0 -119 -109 -175h-109q-118 0 -175 394q0 23 22 65q0 98 -66 656z" />
<glyph unicode="s" horiz-adv-x="1032" d="M45 218v22q0 32 66 66h21q22 0 22 -22l44 22h66l43 -22v44q-131 376 -131 678q80 371 372 371l44 22q38 -22 87 -22q11 0 88 22q101 0 197 -328v-87q-66 -72 -66 -110h-131q-122 54 -153 219h-44q-51 0 -66 -153q0 -98 175 -656v-87q0 -181 -262 -241h-66 q-235 160 -306 262z" />
<glyph unicode="t" horiz-adv-x="1477" d="M-54 678q0 162 503 284l-22 87q44 376 44 613q0 197 262 197q44 -118 44 -132q0 -73 -22 -634q-22 0 -22 -22h22q243 66 306 66v-22l44 22h22q44 0 66 -131q0 -153 -460 -263v-350q44 -154 44 -175h22q432 482 459 482q66 0 66 65q38 -22 87 -22q0 -22 -22 -22 q22 -42 22 -65q0 -266 -546 -853q-17 0 -132 -22q-328 174 -328 744l22 43q-22 0 -22 22q-194 -109 -306 -109h-44q-55 0 -109 197z" />
<glyph unicode="u" horiz-adv-x="1502" d="M134 612v175q0 49 22 87q-22 39 -22 88q0 22 22 22q-22 42 -22 65l131 197h44l44 -22q7 44 43 44q88 -29 88 -197v-328q0 -22 -22 -22q37 -350 88 -350q153 350 196 547l-22 44v109q118 175 307 175l65 -87q131 -681 306 -919q-71 -284 -196 -284q-263 202 -263 350 q-22 0 -22 44h-22l-218 -350q-117 -88 -197 -88h-66q-284 196 -284 700z" />
<glyph unicode="v" horiz-adv-x="1241" d="M33 1093q0 59 241 197q116 0 284 -481h22l-22 -44v-44h44q223 613 393 613l44 -22h66q43 -72 43 -131q0 -112 -262 -678q-175 -503 -394 -503q-132 163 -350 809q-87 125 -109 284z" />
<glyph unicode="w" horiz-adv-x="1782" d="M60 1049q0 138 284 175q153 0 153 -459h44q0 182 153 284v22h241q87 -218 153 -262l-22 -44q52 -153 87 -153q147 700 285 700h87q22 0 22 -22l44 22q44 -7 44 -44v-131q0 -98 -110 -569q22 -42 22 -65q-147 -432 -219 -460q-49 -109 -218 -109q-185 185 -306 481h-44 q-112 -437 -372 -437q-128 0 -284 765q0 168 -44 306z" />
<glyph unicode="x" horiz-adv-x="1312" d="M67 1049q0 99 153 175h153l263 -262q190 394 371 394q175 -38 175 -132q0 -112 -328 -546q306 -295 306 -438q-21 0 -21 -22q21 0 21 -21q-30 0 -131 -132q0 -43 -153 -43l-262 328h-22q-233 -293 -328 -328h-88v65l-22 131q35 122 219 372q-284 331 -284 372 q-22 38 -22 87z" />
<glyph unicode="y" horiz-adv-x="1306" d="M113 568q22 191 22 328v110q65 109 153 109q90 -30 131 -109v-44q0 -22 -22 -22l22 -44v-350q0 -54 44 -196q306 366 306 721h219q131 -41 131 -634v-612q0 -313 -175 -416h-109q0 73 -66 153q0 50 22 88q0 22 -22 22q22 240 44 240l-22 44l22 219v22h-22 q-174 -329 -328 -329q-256 0 -328 591z" />
<glyph unicode="z" horiz-adv-x="1259" d="M67 -481q0 178 372 459q-285 101 -285 262v131q4 49 219 132l241 262h-66q-98 0 -262 -131h-44q-175 0 -175 262q0 138 459 241q438 -37 438 -263q0 -321 -307 -590q54 -44 88 -44q122 88 328 88l109 -22v-131q0 -27 -328 -197l22 -219v-44q-63 -524 -437 -524 q-372 54 -372 328z" />
<glyph unicode="{" horiz-adv-x="1212" d="M60 503v43q0 103 197 219l44 88q-22 342 -22 503q0 398 481 524h65q307 -15 307 -109q0 -197 -153 -197l-110 22q-212 0 -240 -240v-219q0 -91 21 -241q-65 -202 -65 -262q87 0 153 -328q-22 -41 -22 -481q175 0 175 -153v-22q0 -30 -109 -110h-132q-180 0 -328 328v22 q44 95 44 350v131q-49 0 -87 -21q-219 56 -219 153z" />
<glyph unicode="|" horiz-adv-x="556" d="M60 -44q0 130 44 503q0 186 -22 831q22 389 22 634q40 0 175 44q153 0 175 -241v-393q0 -509 22 -1116q-22 -134 -22 -328q-126 -153 -153 -153q-125 0 -241 219z" />
<glyph unicode="}" horiz-adv-x="818" d="M60 -197q197 79 197 262q-22 43 -22 66h22l-88 350q0 73 66 153q0 186 -44 284q175 490 175 525v153q-49 0 -306 175q22 43 22 66q-22 42 -22 65l153 110h22q429 0 503 -525v-22l-153 -547v-22q109 -122 109 -240q0 -97 -153 -241q66 -130 66 -459v-22q0 -214 -306 -284 q-241 33 -241 109v44z" />
<glyph unicode="~" horiz-adv-x="2021" d="M60 568v66q0 274 197 503q130 175 350 175q233 0 503 -416l131 -43q46 2 415 393q90 44 132 44v-22l43 22h22q54 -44 88 -44q-30 -251 -306 -459q-247 -306 -394 -306h-44q-195 0 -459 350q-153 111 -153 131q-169 0 -306 -306q0 -88 -88 -131h-87q-44 0 -44 43z" />
<glyph unicode="&#xa2;" horiz-adv-x="2065" d="M60 809q0 522 634 656q0 72 -44 350q29 197 197 197h22q197 0 197 -481q416 0 416 -263v-22q-37 -240 -197 -240q-159 71 -175 153l22 131h-44v-569l22 -109q355 44 678 109h153q0 -34 44 -87q0 -132 -197 -263q-133 -72 -700 -131l22 -43q0 -182 -197 -219 q0 27 -131 109q0 178 -394 219q-328 215 -328 503zM410 853q0 -95 240 -219q43 22 66 22v197l-22 218h22q-22 110 -44 110q-262 -173 -262 -328z" />
<glyph unicode="&#xa3;" horiz-adv-x="1758" d="M60 109q44 0 44 44q0 27 -22 218l22 44q-22 38 -22 88v65q1 62 240 153q44 90 44 132q-153 54 -153 175v65q2 66 284 153q159 430 372 591q19 101 284 175q307 -22 307 -132q52 0 87 -437q0 -134 -153 -240h-44q-175 81 -175 218l44 88q-22 42 -22 65h22q-22 37 -22 110 h-22q-179 -105 -306 -503q503 -33 503 -153q0 -99 22 -132q-192 -109 -372 -109h-65l-219 22q-66 -148 -66 -241q213 -109 963 -240l43 -66v-65q0 -22 -22 -22l22 -44q-87 -109 -196 -109q-264 0 -897 175h-22q-220 -328 -284 -329q-219 58 -219 241z" />
<glyph unicode="&#xa4;" horiz-adv-x="1911" d="M60 481q0 49 503 503q0 65 -437 262q0 34 -44 88v22q0 99 131 175l109 -22h66q0 -38 219 -153q222 126 372 153h65q66 0 66 -132h87q77 0 153 -87v44l-22 87q72 306 175 306q28 22 153 22q37 0 66 -153q-165 -350 -372 -350q0 -261 219 -372q0 -39 153 -153 q109 -113 109 -196v-22q0 -54 -218 -66q-64 0 -350 241q-154 -197 -263 -197q-350 83 -350 197h-21q-369 -328 -460 -328h-43q0 58 -66 131zM847 984q44 -197 110 -197q153 103 153 284v110q0 43 -44 43q0 -54 -87 -65q0 109 -88 131q-44 -80 -44 -175v-131z" />
<glyph unicode="&#xa7;" horiz-adv-x="1168" d="M60 962q0 71 262 328v22q-153 153 -153 197q0 343 525 546q85 22 175 22h22q73 0 153 -65q-22 -197 -65 -197l-110 22q-92 0 -328 -263v-43q547 -96 547 -350v-44q0 -219 -372 -394v-43q180 0 219 -307q-175 -328 -416 -328q-197 0 -197 153q0 142 175 219v44 q-437 203 -437 481z" />
<glyph unicode="&#xa8;" horiz-adv-x="721" d="M60 1263q0 13 14 26l71 72q13 12 25 12q11 0 27 -14l69 -73q10 -14 10 -25q0 -13 -12 -27l-69 -75q-17 -17 -25 -17q-14 0 -25 12l-76 86q-9 12 -9 23zM425 1263q0 13 14 26l71 72q13 12 25 12q11 0 27 -13l69 -74q10 -14 10 -25q0 -13 -12 -26l-69 -76q-17 -17 -25 -17 q-14 0 -25 12l-76 87q-9 11 -9 22z" />
<glyph unicode="&#xa9;" horiz-adv-x="1760" d="M125 1159h22l-22 44v87q0 394 394 634h43q241 0 241 -65v-66q0 -29 -219 -153q-43 -59 -87 -219h22q0 124 284 153q219 -65 219 -153l-22 -131l-44 22q-89 -44 -131 -44q-43 22 -66 22v-44q0 -192 241 -306v-109q-170 -81 -197 -110q51 0 131 -65h44q108 0 197 525 q0 525 -219 525q-16 0 -66 109v87l197 22q394 0 438 -459q0 -202 22 -306q-88 -608 -329 -678q-132 -153 -328 -153q-275 0 -678 525q0 61 -87 306z" />
<glyph unicode="&#xad;" d="M223 1093v22q16 175 153 175v-22q22 0 22 22l109 -22h132q49 0 87 22q350 -30 350 -131q44 -7 44 -44q-52 -197 -350 -197q-118 0 -219 -44q-22 0 -22 22l-109 -22q-197 16 -197 219z" />
<glyph unicode="&#xae;" horiz-adv-x="1758" d="M60 1290v87q0 290 350 613q243 153 437 153h175l22 -109q-65 -132 -240 -132q-438 -240 -438 -546q0 -175 131 -416h22q0 104 22 219q-22 42 -22 65h22l-22 44q0 22 22 22q-44 72 -44 131h22q-22 43 -22 66q95 284 153 284h219q300 0 394 -306v-22q0 -167 -219 -262v-22 q73 0 153 -66h110q43 203 65 503q0 173 -197 394v22q0 31 66 65q437 -117 437 -590v-219q0 -687 -743 -831h-66q-334 0 -634 284q-175 335 -175 569zM804 743h43q55 0 197 44q0 44 -219 109z" />
<glyph unicode="&#xb0;" horiz-adv-x="840" d="M60 1334v175q0 158 109 175v131q89 131 219 131h44q328 -77 328 -328v-44q-56 -459 -328 -459h-175q-55 11 -197 219zM301 1487l43 -88q88 33 88 66v87q0 32 -66 66q-44 -131 -65 -131z" />
<glyph unicode="&#xb1;" horiz-adv-x="1387" d="M60 350v109q0 29 109 109h263l44 22l-22 44v284h-197q-66 0 -110 285l132 109h197q0 87 21 87l-21 110v65q0 34 87 88h44q170 0 218 -131v-175l-21 -44l109 -22h197q109 -66 109 -153q-82 -219 -284 -219v22l-44 -22h-109v-218l-22 -110h22q312 0 525 -87v-153 q0 -37 -175 -132h-44q-22 0 -22 22q-42 -22 -66 -22q-177 0 -809 -43q-50 0 -131 175z" />
<glyph unicode="&#xb4;" horiz-adv-x="601" d="M60 1078l291 297q35 35 55.5 47t40.5 12q33 0 53.5 -20t20.5 -51q0 -22 -15.5 -42t-46.5 -40l-330 -203h-69z" />
<glyph unicode="&#xb6;" horiz-adv-x="1824" d="M60 1399q0 204 547 372q101 0 393 88v-22q43 22 66 22q71 0 153 -153l-44 -132q22 -118 22 -197v-21q0 -79 -22 -197l22 -44q-22 -186 -22 -306v-197q44 -319 44 -350q-145 -109 -197 -109q-131 160 -131 328q-22 85 -22 175q22 42 22 65q-22 37 -22 110h-197 q-78 0 -196 -22q-263 0 -372 306q-22 22 -44 284zM1394 1618h22l-22 44q0 197 197 197q126 0 153 -175q-22 -156 -22 -175l22 -132h-22l22 -43v-241q0 -22 -22 -22q0 -22 22 -22q-22 -193 -22 -240q22 -354 22 -394q-30 -90 -109 -131h-66q-153 100 -153 394h22l-22 43v241 q0 22 22 22q0 22 -22 22q0 23 22 65z" />
<glyph unicode="&#xb8;" horiz-adv-x="548" d="M60 -290q85 -52 152 -52q66 0 94.5 21.5t28.5 66.5t-49 64q-40 16 -102 16q-16 0 -34 -2l48 176h63l-37 -104q32 4 62 5q86 0 134 -40.5t48 -113.5q0 -76 -58.5 -120.5t-160.5 -44.5q-109 0 -189 32v96z" />
<glyph unicode="&#x2c6;" horiz-adv-x="722" d="M60 1079l232 355h118l232 -355h-58l-233 216l-233 -216h-58z" />
<glyph unicode="&#x2dc;" horiz-adv-x="714" d="M60 1132q19 106 68 158.5t129 52.5q46 -1 113 -24q64 -23 112 -23h4q36 0 58 20t36 66h54q-20 -103 -68.5 -154t-126.5 -51h-4q-50 0 -113 23q-66 24 -114 24q-39 0 -60.5 -20.5t-33.5 -71.5h-54z" />
<glyph unicode="&#x2000;" horiz-adv-x="1071" />
<glyph unicode="&#x2001;" horiz-adv-x="2143" />
<glyph unicode="&#x2002;" horiz-adv-x="1071" />
<glyph unicode="&#x2003;" horiz-adv-x="2143" />
<glyph unicode="&#x2004;" horiz-adv-x="714" />
<glyph unicode="&#x2005;" horiz-adv-x="535" />
<glyph unicode="&#x2006;" horiz-adv-x="357" />
<glyph unicode="&#x2007;" horiz-adv-x="357" />
<glyph unicode="&#x2008;" horiz-adv-x="267" />
<glyph unicode="&#x2009;" horiz-adv-x="428" />
<glyph unicode="&#x200a;" horiz-adv-x="119" />
<glyph unicode="&#x2010;" d="M223 1093v22q16 175 153 175v-22q22 0 22 22l109 -22h132q49 0 87 22q350 -30 350 -131q44 -7 44 -44q-52 -197 -350 -197q-118 0 -219 -44q-22 0 -22 22l-109 -22q-197 16 -197 219z" />
<glyph unicode="&#x2011;" d="M223 1093v22q16 175 153 175v-22q22 0 22 22l109 -22h132q49 0 87 22q350 -30 350 -131q44 -7 44 -44q-52 -197 -350 -197q-118 0 -219 -44q-22 0 -22 22l-109 -22q-197 16 -197 219z" />
<glyph unicode="&#x2012;" d="M223 1093v22q16 175 153 175v-22q22 0 22 22l109 -22h132q49 0 87 22q350 -30 350 -131q44 -7 44 -44q-52 -197 -350 -197q-118 0 -219 -44q-22 0 -22 22l-109 -22q-197 16 -197 219z" />
<glyph unicode="&#x2013;" horiz-adv-x="1463" d="M223 1093v22q18 175 175 175v-22q25 0 25 22l124 -22h151q56 0 99 22q400 -30 400 -131q50 -7 50 -44q-59 -197 -400 -197q-134 0 -250 -44q-25 0 -25 22l-124 -22q-225 16 -225 219z" />
<glyph unicode="&#x2014;" horiz-adv-x="2487" d="M223 1093v22q37 175 349 175v-22q51 0 51 22l248 -22h302q112 0 198 22q800 -30 800 -131q100 -7 100 -44q-119 -197 -799 -197q-270 0 -500 -44q-50 0 -50 22l-249 -22q-450 16 -450 219z" />
<glyph unicode="&#x2018;" horiz-adv-x="599" d="M60 1474q0 356 262 503h44q153 0 153 -110l-87 -372q65 -109 65 -174v-66q-27 0 -153 -88q-204 0 -284 307z" />
<glyph unicode="&#x2019;" horiz-adv-x="599" d="M60 1277l87 372q-65 109 -65 174v66q27 0 153 88q204 0 284 -307q0 -356 -262 -503h-44q-153 0 -153 110z" />
<glyph unicode="&#x201c;" horiz-adv-x="1242" d="M60 1474q0 356 262 503h44q153 0 153 -110l-87 -372q65 -109 65 -174v-66q-27 0 -153 -88q-204 0 -284 307zM703 1474q0 356 262 503h44q153 0 153 -110l-87 -372q65 -109 65 -174v-66q-27 0 -153 -88q-204 0 -284 307z" />
<glyph unicode="&#x201d;" horiz-adv-x="1242" d="M60 1277l87 372q-65 109 -65 174v66q27 0 153 88q204 0 284 -307q0 -356 -262 -503h-44q-153 0 -153 110zM703 1277l87 372q-65 109 -65 174v66q27 0 153 88q204 0 284 -307q0 -356 -262 -503h-44q-153 0 -153 110z" />
<glyph unicode="&#x2022;" horiz-adv-x="840" d="M60 568v153q66 0 66 110q-44 0 -44 22q0 218 240 218h132q267 0 306 -328q0 -255 -481 -372h-44q-114 59 -153 197h-22z" />
<glyph unicode="&#x2026;" horiz-adv-x="1711" d="M60 378q0 11 3 17l32 56q17 29 210 57q118 -68 118 -152q0 -38 -24 -80l-33 -56q-60 -104 -163 -104q-32 0 -68 10q-75 195 -75 252zM664 378q0 11 3 17l33 56q16 29 209 57q118 -68 118 -152q0 -38 -24 -80l-33 -56q-60 -104 -163 -104q-32 0 -68 10q-75 195 -75 252z M1268 378q0 11 3 17l33 56q16 29 209 57q118 -68 118 -152q0 -38 -24 -80l-32 -56q-60 -104 -163 -104q-32 0 -68 10q-76 196 -76 252z" />
<glyph unicode="&#x202f;" horiz-adv-x="428" />
<glyph unicode="&#x205f;" horiz-adv-x="535" />
<glyph unicode="&#x20ac;" horiz-adv-x="1532" d="M6 1006v65q23 94 328 153q0 306 306 613q192 109 219 109l44 -22l109 22q240 0 306 -350q-59 -328 -153 -328h-44q-196 63 -196 197q43 72 43 131q-22 66 -43 66q-219 -146 -219 -372v-44q634 -37 634 -262v-22q0 -94 -87 -131v-22l-154 22q154 -124 154 -153l-66 -153 h22q38 21 87 21l88 -109v-66q0 -100 -328 -218l-219 -22q-127 0 -481 262q-189 0 -219 285v22q113 109 197 109v22q-328 0 -328 175zM684 809h394v22q-74 0 -110 22q-22 0 -22 -22l-109 22h-153v-44z" />
<glyph unicode="&#x2122;" horiz-adv-x="2021" d="M60 1727q33 88 66 88h284q219 -5 219 -44l43 22q175 -58 175 -109v-22q0 -122 -197 -175v-350q0 -83 -65 -197h-109q-95 0 -154 306v241q-166 0 -262 240zM847 1268q7 372 44 372l-22 44v131q58 108 88 109q262 0 415 -218q29 0 197 218h131q241 0 241 -547 q0 -21 -22 -21l22 -110v-175q0 -28 -131 -87q-175 0 -219 415q-85 -109 -175 -109h-88q-110 87 -131 87q0 -278 -131 -371h-66q-153 89 -153 262z" />
<glyph unicode="&#x25fc;" horiz-adv-x="1355" d="M0 0v1355h1355v-1355h-1355z" />
</font>
</defs>
</svg>
